PathFileType	4	(X/Y/Z)	49_2_rein_72_p0_0-211.trc
DataRate	CameraRate	NumFrames	NumMarkers	Units	OrigDataRate	OrigDataStartFrame	OrigNumFrames
60.0	60.0	6	27	m	60.0	185	212
Frame#	Time	RHip			RKnee			RAnkle			RBigToe			RSmallToe			RHeel			LHip			LKnee			LAnkle			LBigToe			LSmallToe			LHeel			Neck			Head			Nose			RShoulder			RElbow			RWrist			RThumb			RIndex			RPinky			LShoulder			LElbow			LWrist			LThumb			LIndex			LPinky			
		X1	Y1	Z1	X2	Y2	Z2	X3	Y3	Z3	X4	Y4	Z4	X5	Y5	Z5	X6	Y6	Z6	X7	Y7	Z7	X8	Y8	Z8	X9	Y9	Z9	X10	Y10	Z10	X11	Y11	Z11	X12	Y12	Z12	X13	Y13	Z13	X14	Y14	Z14	X15	Y15	Z15	X16	Y16	Z16	X17	Y17	Z17	X18	Y18	Z18	X19	Y19	Z19	X20	Y20	Z20	X21	Y21	Z21	X22	Y22	Z22	X23	Y23	Z23	X24	Y24	Z24	X25	Y25	Z25	X26	Y26	Z26	X27	Y27	Z27	
185	3.0833333333333335	0.37806755315175117	0.5942474398617315	0.790987033197158	0.37302421030052213	0.8548927552042623	1.1978678673199155	0.3430508164769562	1.030647305321908	1.5945321555545597	0.3095140578859319	0.88537311432253	1.6802871116902474	0.36842930591491935	0.8663299660104056	1.6710774074053305	0.32028666902694747	1.1539180439298287	1.6355786740007816	0.18091284194811358	0.624329823582945	0.7830570659600977	0.16473922996110268	0.8678151092329546	1.19298045404499	0.16942520257822832	1.036049101919198	1.5837187957429615	0.1616832578653904	0.869265615917864	1.6559483075647854	0.11229968180302273	0.9133873888983801	1.6476320890284193	0.18683024506078835	1.1154745587499926	1.638531135335277	0.28214722728096225	0.3910016277755931	0.1910145332407242	0.30823905006627655	0.24903222724298274	-0.022752596693838553	0.28371843347881265	0.2167283467476759	0.12845619342769357	0.4394324475259031	0.39440837144231766	0.2954111078123153	0.4818425944862994	0.529638359552344	0.5478921133542412	0.44077685146257267	0.5168114031352895	0.8213229458440735	0.34433131745615403	0.5591564351988468	0.9337166665797256	0.3652357071505788	0.5573514353254877	0.9649659057099306	0.41776239116984376	0.6316971653776027	0.9558164926459066	0.11334726617100313	0.47666143431099206	0.26142002930011093	0.08321583594362852	0.5382908144862926	0.5242836213714692	0.09389502774604701	0.5767347905250205	0.7939680114841833	0.1567632071490225	0.571438660876275	0.8896505973694568	0.13520269539778051	0.5607932059056817	0.9271708946345103	0.09790412490779105	0.6555872175691441	0.9190658419439967
186	3.1	0.3781559845947368	0.5941699301049496	0.7910282618378596	0.37303633819090926	0.854819101871876	1.1979845882723088	0.34308435971194307	1.0305854943943056	1.5945955093876265	0.3094766491133541	0.8851417489018251	1.6802542450565747	0.369488996977736	0.8693990215339943	1.6755618595500856	0.3202543619736273	1.1538679346040197	1.6357626655088566	0.18091308473492784	0.6242789467731041	0.783017492114102	0.1637167860719538	0.8702105366390549	1.1968669887441712	0.16931826964265853	1.0356433400147929	1.5836071874759494	0.1615713064596055	0.8695084940189626	1.6559706476142715	0.11208696149878895	0.9137877116576467	1.6477304240549542	0.18694610975329004	1.1146117858821196	1.637977720714886	0.2821181973005993	0.39099482198033536	0.19101985858217532	0.3081617164805403	0.24900767234719737	-0.022769725303450374	0.28093920538425876	0.227488866667888	0.1251259441109637	0.4394290784655987	0.3945831469319794	0.2953685542097034	0.48184903660181605	0.5297397498635298	0.5479120565486585	0.44070760041892526	0.5167189222178877	0.8214607837645087	0.34372127687550413	0.5601033199121722	0.9376138310787226	0.3652319345034688	0.5569249871476558	0.9649962109147895	0.41827633732188274	0.6300446241257018	0.9527513270405754	0.11329936298829466	0.4766203539290462	0.2614653060173508	0.08306533064161165	0.5383624158639322	0.5242394330857741	0.0940040166717006	0.5770095040764072	0.7940948637145813	0.1534253775480148	0.5597771812146966	0.8901277424113218	0.13585393112929936	0.5637325955735384	0.9354849366431393	0.09802697481490448	0.6562314519470568	0.919240200373934
187	3.1166666666666667	0.3818061913587594	0.6077032202301395	0.7939089277668692	0.3729176847457241	0.8550332085321477	1.1981291287934062	0.34309594126505055	1.0301763561825623	1.5945564362814524	0.31071808670289797	0.8838308009757191	1.67569156966802	0.3708849538813155	0.8686025963619054	1.671038833852664	0.3223111469018757	1.1555519374530137	1.636388658184661	0.1727276355939156	0.637547226772301	0.7823945640675738	0.16361989656826428	0.8696934375615528	1.1968812412586145	0.16973067318612034	1.03494277943673	1.5879246215764153	0.16146831041197307	0.8691182942497184	1.6558203031972285	0.11183320805806302	0.9134882705420134	1.6476419333482681	0.1870406784515171	1.1147987799137855	1.6380980446851303	0.2820922785284976	0.3911343023092186	0.19092985822510825	0.308169826087186	0.24911295783164702	-0.022966769334650954	0.2809295155851006	0.22763875330284486	0.12504432710628674	0.43682007605569706	0.4071140747129409	0.2924406652343104	0.4817665879339897	0.5296366961272357	0.5478628557207551	0.4407241431344458	0.5168277884956131	0.8215113817344929	0.34378161493138026	0.559899105261331	0.9376013492844641	0.3651254900732102	0.5569211343616419	0.9648828525608538	0.41823725371365755	0.6301193623393926	0.9527304701546709	0.11325718151002699	0.47687100843437696	0.2613696057029059	0.08290812057255319	0.537542781884322	0.5241224046989376	0.09429530667729397	0.5764870847185947	0.7940904592010983	0.153605037874248	0.5600570995288675	0.8935000430893011	0.13480629722976104	0.5621475811642315	0.9349564931643555	0.09809887276073688	0.6564110844272699	0.9191151286691612
188	3.1333333333333333	0.3824757036083309	0.6105144972640509	0.7975331080693532	0.3729931652880057	0.8548492612009775	1.1979700296509364	0.3430695011496903	1.0303223914296593	1.5945340848524625	0.31419584136492834	0.8665503441436182	1.6720950544147988	0.3750450307619685	0.882308635161168	1.6741144812730988	0.3212671915556661	1.1574637536323504	1.6406973533610656	0.17696402015708507	0.6383177283944128	0.7824037487317254	0.1637161136269084	0.8701254349162252	1.1969504737505554	0.16991195725801012	1.0349662773251556	1.587996625781832	0.16159846101317804	0.8692706719117318	1.6558835258054485	0.11211259258356829	0.913043110376118	1.6475189509050499	0.18692607711188708	1.1151693702892291	1.6384833667028493	0.28207864568495217	0.39118026250320015	0.19089809243367262	0.308102978046002	0.24914410273459384	-0.023015201653499663	0.27675416680868775	0.22623766141420365	0.12545864473559798	0.43680186616087	0.4070644692196685	0.29242283652360784	0.48166223512082884	0.5297068336411908	0.5478906715004054	0.4407231594169939	0.5168282238573823	0.8216357209427694	0.3445695625024141	0.5623095112755524	0.9414343329099738	0.36514277913301996	0.5570828266830538	0.9650020518749265	0.41775645346889645	0.6312245502002307	0.9558885817619854	0.11325349722115527	0.4769685369753128	0.26132897402782	0.08272369500795895	0.5377551777558031	0.5239477930018546	0.09441762992930434	0.5762685925827645	0.794040982066458	0.16121125033508157	0.5740382900923844	0.8896217986867047	0.13588301242662984	0.5634062689247678	0.9314717487281281	0.09931070421961409	0.6539795395001899	0.9153390866749384
189	3.15	0.3823585885308915	0.6105511953386966	0.7977563782536461	0.3729521298825341	0.8553421547607668	1.1981649376194021	0.34310825090387426	1.0304372592319608	1.594567422443681	0.31064298292825593	0.8834960172576073	1.6757530921421877	0.37070661270877187	0.868546682717017	1.6711800863676893	0.32226003338630027	1.155601113232559	1.63638574502131	0.17210988749399858	0.6388840644181576	0.7858223029155171	0.163725378799124	0.8704257269046057	1.1969387893378969	0.16983385392498965	1.034944880030537	1.587949260429491	0.16155946922039097	0.8692862369624226	1.6559085369953759	0.11195265442962064	0.9132114990626269	1.647577564005462	0.1868775491835606	1.1148852648765224	1.6383040769016552	0.28203734476410985	0.39126448462797536	0.1908477267846848	0.30799124120354476	0.24915866611192605	-0.02309891381331821	0.28089933349851287	0.22756694361247876	0.12501027705650508	0.43674454567403537	0.4072237819206043	0.29239780378579616	0.4816384853673684	0.5294890699313646	0.547861123810166	0.44139201193325767	0.5189947628935241	0.8254014027050469	0.34012921216224423	0.5508071589532296	0.944536843096259	0.3647046412136222	0.5562277025111896	0.9647715576381845	0.4134677375269741	0.6296847993308843	0.953408894289606	0.11320665716786522	0.47701799206214507	0.261248061834122	0.07844742767792602	0.5509548367078798	0.5221032950763043	0.09470816094583728	0.5764553786806892	0.7940711702092697	0.16501410564408472	0.586206621832601	0.8893471783819821	0.13882644482720152	0.5734244063305383	0.9314210996419652	0.10011120801652944	0.6577865472921645	0.9191687184857403
190	3.1666666666666665	0.38238734826338033	0.610405350689079	0.797675612029713	0.3737948231746722	0.8586774628952348	1.2025422479098542	0.3466637821467714	1.0114863177590934	1.5910363871590565	0.31409780938986326	0.8664088065967485	1.6719913629308958	0.3705574954635136	0.8681456341699099	1.6712296091382883	0.3223150152375838	1.155438277339134	1.636346853678461	0.17255401909314688	0.6377670051394378	0.78239469786943	0.16366432668524372	0.8702486861608183	1.200912587558564	0.16985855439818137	1.034729656196209	1.58787398253645	0.1616562567128747	0.8690517665755199	1.6557811586293802	0.11201864691909168	0.9124817982101827	1.647307753098902	0.18678591116855456	1.1148961269129027	1.6384092658613583	0.282064162880647	0.39130736413878947	0.19082655467397253	0.3079163851979817	0.2491807798899119	-0.023253662255154885	0.2767158147927403	0.2263190323689389	0.1254911352963859	0.43669970149553405	0.40724750577700775	0.29234451875506806	0.4815922942733603	0.5291897009025607	0.5479801619923059	0.44131994647489975	0.5188332320249104	0.8254405182462783	0.3354211836709117	0.5470031896825028	0.9378846799473399	0.35970257856325194	0.5530324507546196	0.9609239707296636	0.41326029481695903	0.6295859257446641	0.9535948341910262	0.11319348571487033	0.47694226850791	0.2612045361354408	0.07823632981284998	0.5515833469737398	0.5220803378829187	0.09905560438297403	0.5625192603731147	0.7945708216842738	0.16947871100203163	0.5876886410493951	0.8889093710827383	0.1459531940739483	0.5586120769479409	0.92392048292557	0.10052040972983095	0.6523870101562298	0.9150215484046268
